<svg xmlns="http://www.w3.org/2000/svg" width="39.422" height="41.965" viewBox="0 0 39.422 41.965">
  <g id="logout_1_" data-name="logout (1)" transform="translate(-10)">
    <path id="Path_264" data-name="Path 264" d="M92.333,80.557a1.907,1.907,0,1,0-2.7,2.7L95.281,88.9H71.91a1.908,1.908,0,1,0,0,3.815H95.281l-5.645,5.645a1.908,1.908,0,0,0,2.7,2.7l8.9-8.9a1.907,1.907,0,0,0,0-2.7Z" transform="translate(-52.372 -69.825)" fill="#b3212d"/>
    <path id="Path_265" data-name="Path 265" d="M28.439,41.965a1.908,1.908,0,1,0,0-3.815H13.815V3.815H28.439a1.908,1.908,0,0,0,0-3.815H11.908A1.908,1.908,0,0,0,10,1.908v38.15a1.908,1.908,0,0,0,1.908,1.908Z" fill="#b3212d"/>
  </g>
</svg>
