<svg xmlns="http://www.w3.org/2000/svg" width="50.565" height="50.565" viewBox="0 0 50.565 50.565">
  <g id="Group_75" data-name="Group 75" transform="translate(-172 -273)">
    <g id="Group_56" data-name="Group 56" transform="translate(172 273)">
      <path id="Path_234" data-name="Path 234" d="M34.27,6.024H29.727V4.444a1.481,1.481,0,0,0-1.481-1.481h-4.7a4.445,4.445,0,0,0-8.381,0h-4.8A1.481,1.481,0,0,0,8.888,4.444v1.58H4.444A4.449,4.449,0,0,0,0,10.469V46.121a4.449,4.449,0,0,0,4.444,4.444H34.27a4.449,4.449,0,0,0,4.444-4.444V10.469A4.449,4.449,0,0,0,34.27,6.024Zm-22.419-.1h4.543a1.481,1.481,0,0,0,1.481-1.481,1.481,1.481,0,0,1,2.963,0A1.481,1.481,0,0,0,22.32,5.926h4.444v1.58a1.483,1.483,0,0,1-1.481,1.481H13.333a1.483,1.483,0,0,1-1.481-1.481Zm23.9,40.2A1.483,1.483,0,0,1,34.27,47.6H4.444a1.483,1.483,0,0,1-1.481-1.481V10.469A1.483,1.483,0,0,1,4.444,8.987h4.7a4.451,4.451,0,0,0,4.189,2.963h11.95a4.451,4.451,0,0,0,4.189-2.963h4.8a1.483,1.483,0,0,1,1.481,1.481Z" fill="#b3212d"/>
    </g>
    <g id="Group_59" data-name="Group 59" transform="translate(177.926 298.283)">
      <g id="Group_58" data-name="Group 58">
        <path id="Path_235" data-name="Path 235" d="M71.524,256.443a1.481,1.481,0,0,0-2.095-.017l-4.977,4.9L62.528,259.4a1.481,1.481,0,1,0-2.1,2.1l2.963,2.963a1.481,1.481,0,0,0,2.086.009l6.024-5.926A1.481,1.481,0,0,0,71.524,256.443Z" transform="translate(-59.999 -256)" fill="#b3212d"/>
      </g>
    </g>
    <g id="Group_61" data-name="Group 61" transform="translate(177.926 308.653)">
      <g id="Group_60" data-name="Group 60">
        <path id="Path_236" data-name="Path 236" d="M71.524,361.443a1.481,1.481,0,0,0-2.095-.017l-4.977,4.9L62.528,364.4a1.481,1.481,0,1,0-2.1,2.095l2.963,2.963a1.481,1.481,0,0,0,2.086.009l6.024-5.926A1.481,1.481,0,0,0,71.524,361.443Z" transform="translate(-59.999 -361)" fill="#b3212d"/>
      </g>
    </g>
    <g id="Group_63" data-name="Group 63" transform="translate(177.926 287.913)">
      <g id="Group_62" data-name="Group 62">
        <path id="Path_237" data-name="Path 237" d="M68.454,157.36l-1.915-1.915,1.915-1.915a1.481,1.481,0,1,0-2.1-2.095l-1.915,1.915-1.915-1.915a1.481,1.481,0,1,0-2.1,2.095l1.915,1.915-1.915,1.915a1.481,1.481,0,1,0,2.1,2.1l1.915-1.915,1.915,1.915a1.481,1.481,0,1,0,2.1-2.1Z" transform="translate(-59.999 -151)" fill="#b3212d"/>
      </g>
    </g>
    <g id="Group_65" data-name="Group 65" transform="translate(192.838 290.876)">
      <g id="Group_64" data-name="Group 64">
        <path id="Path_238" data-name="Path 238" d="M221.469,181h-8.987a1.481,1.481,0,1,0,0,2.963h8.987a1.481,1.481,0,0,0,0-2.963Z" transform="translate(-211 -181)" fill="#b3212d"/>
      </g>
    </g>
    <g id="Group_67" data-name="Group 67" transform="translate(192.838 301.245)">
      <g id="Group_66" data-name="Group 66">
        <path id="Path_239" data-name="Path 239" d="M221.469,286h-8.987a1.481,1.481,0,1,0,0,2.963h8.987a1.481,1.481,0,0,0,0-2.963Z" transform="translate(-211 -286)" fill="#b3212d"/>
      </g>
    </g>
    <g id="Group_69" data-name="Group 69" transform="translate(192.838 311.615)">
      <g id="Group_68" data-name="Group 68">
        <path id="Path_240" data-name="Path 240" d="M221.469,391h-8.987a1.481,1.481,0,1,0,0,2.963h8.987a1.481,1.481,0,0,0,0-2.963Z" transform="translate(-211 -391)" fill="#b3212d"/>
      </g>
    </g>
    <g id="Group_71" data-name="Group 71" transform="translate(213.677 281.987)">
      <g id="Group_70" data-name="Group 70">
        <path id="Path_241" data-name="Path 241" d="M426.444,91A4.449,4.449,0,0,0,422,95.444v23.7a1.524,1.524,0,0,0,.075.464l2.963,8.987a1.481,1.481,0,0,0,2.814,0l2.963-8.987a1.539,1.539,0,0,0,.074-.464v-23.7A4.449,4.449,0,0,0,426.444,91Zm0,32.4-1.223-3.711a2.721,2.721,0,0,1,2.447,0Zm1.481-6.768a5.7,5.7,0,0,0-2.963,0V102.851h2.963Zm0-16.746h-2.963V95.444a1.481,1.481,0,0,1,2.963,0Z" transform="translate(-422 -91)" fill="#b3212d"/>
      </g>
    </g>
  </g>
</svg>
