<svg xmlns="http://www.w3.org/2000/svg" width="51.961" height="47.401" viewBox="0 0 51.961 47.401">
  <g id="fix-sign" transform="translate(0 -20.652)">
    <path id="Path_245" data-name="Path 245" d="M47,44.983l2.654-.321a2.627,2.627,0,0,0-.315-5.234H47.486a2.631,2.631,0,0,0-2.465,1.72l-2.585-5.659a7.515,7.515,0,0,0-5.129-4.181c-.1-.024-.218-.047-.339-.07a11,11,0,0,0-21.976,0c-.121.023-.235.046-.339.07a7.516,7.516,0,0,0-5.128,4.181L6.939,41.146a2.631,2.631,0,0,0-2.465-1.719H2.627a2.627,2.627,0,0,0-.315,5.234l2.654.321L2.427,47.521A5.607,5.607,0,0,0,.848,52.25l.868,6.121a6.2,6.2,0,0,0,2.2,3.9v2.78a3,3,0,0,0,3,3h4.973a3,3,0,0,0,3-3V63.7H37.077v1.35a3,3,0,0,0,3,3h4.971a3,3,0,0,0,3-3v-2.78a6.2,6.2,0,0,0,2.2-3.9l.868-6.121a5.607,5.607,0,0,0-1.579-4.729ZM44.1,61.717H7.86a4.239,4.239,0,0,1-4.136-3.393H48.236A4.239,4.239,0,0,1,44.1,61.717ZM37.687,53.1l1.01,3.233H37.321L36.311,53.1Zm-3.458,0,1.01,3.233H16.722l1.01-3.233ZM14.64,56.336H13.264l1.01-3.233H15.65Zm-3.458,0H3.435L2.977,53.1h9.215Zm29.6,0L39.769,53.1h9.215l-.459,3.233Zm6.068-14.282a.64.64,0,0,1,.639-.639h1.849a.639.639,0,0,1,.077,1.274L46.847,43v-.945ZM39.163,34.4c-.614-.106-1.438-.2-2.465-.282q.1-.429.163-.869h0A5.487,5.487,0,0,1,39.163,34.4ZM25.98,22.639a9.009,9.009,0,1,1-9.009,9.009A9.019,9.019,0,0,1,25.98,22.639ZM15.1,33.245h0q.064.44.163.869c-1.029.082-1.854.176-2.465.282A5.489,5.489,0,0,1,15.1,33.245Zm-4.1,3.81a7.513,7.513,0,0,1,1.981-.672,27.585,27.585,0,0,1,2.932-.325,10.995,10.995,0,0,0,20.144,0,27.468,27.468,0,0,1,2.934.325,7.508,7.508,0,0,1,1.981.673l3.071,6.721H7.924Zm-9.007,5a.64.64,0,0,1,.639-.639H4.475a.64.64,0,0,1,.639.639V43l-2.565-.31A.64.64,0,0,1,1.987,42.054Zm5.007,3.71H44.967l3.162,3.162a3.612,3.612,0,0,1,1.033,2.19H2.8a3.611,3.611,0,0,1,1.033-2.19Zm5.9,19.29a1.012,1.012,0,0,1-1.011,1.011H6.914A1.012,1.012,0,0,1,5.9,65.054V63.383A6.131,6.131,0,0,0,7.86,63.7H12.9Zm33.161,0a1.012,1.012,0,0,1-1.011,1.011H40.076a1.012,1.012,0,0,1-1.011-1.011V63.7H44.1a6.131,6.131,0,0,0,1.957-.321v1.671Z" fill="#b3212d"/>
    <path id="Path_246" data-name="Path 246" d="M195.173,71.689a.994.994,0,0,0,.866.507q.048,0,.1,0a.993.993,0,0,0,.847-.679l3.643-11.1a.994.994,0,1,0-1.888-.62L195.8,68.749l-1.875-3.333a.994.994,0,1,0-1.732.974Z" transform="translate(-170.86 -34.215)" fill="#b3212d"/>
  </g>
</svg>
