<svg xmlns="http://www.w3.org/2000/svg" width="48.857" height="48.856" viewBox="0 0 48.857 48.856">
  <g id="settings_1_" data-name="settings (1)" transform="translate(0.5 0.499)">
    <g id="Group_72" data-name="Group 72" transform="translate(0 0.001)">
      <path id="Path_243" data-name="Path 243" d="M45.407,18.905l-3.359-.57a18.967,18.967,0,0,0-1.35-3.259l1.979-2.769a2.947,2.947,0,0,0-.32-3.809L39.379,5.519a2.935,2.935,0,0,0-2.089-.87,2.9,2.9,0,0,0-1.71.55L32.8,7.179a18.77,18.77,0,0,0-3.379-1.39l-.56-3.319A2.953,2.953,0,0,0,25.942,0H21.734A2.953,2.953,0,0,0,18.815,2.47l-.58,3.4a18.5,18.5,0,0,0-3.249,1.37L12.236,5.259a2.953,2.953,0,0,0-3.809.32L5.438,8.558a2.959,2.959,0,0,0-.32,3.809l2,2.809a18.526,18.526,0,0,0-1.33,3.269l-3.319.56A2.953,2.953,0,0,0,0,21.925v4.209a2.953,2.953,0,0,0,2.469,2.919l3.4.58a18.5,18.5,0,0,0,1.37,3.249L5.268,35.621a2.947,2.947,0,0,0,.32,3.809l2.979,2.979a2.935,2.935,0,0,0,2.089.87,2.9,2.9,0,0,0,1.71-.55l2.809-2a18.912,18.912,0,0,0,3.159,1.3l.56,3.359a2.953,2.953,0,0,0,2.919,2.469h4.219a2.953,2.953,0,0,0,2.919-2.469l.57-3.359a18.967,18.967,0,0,0,3.259-1.35l2.769,1.979a2.935,2.935,0,0,0,1.719.55h0a2.935,2.935,0,0,0,2.089-.87l2.979-2.979a2.959,2.959,0,0,0,.32-3.809l-1.979-2.779a18.831,18.831,0,0,0,1.35-3.259l3.359-.56a2.953,2.953,0,0,0,2.469-2.919V21.825A2.918,2.918,0,0,0,45.407,18.905Zm-.23,7.128a.259.259,0,0,1-.22.26l-4.2.7a1.342,1.342,0,0,0-1.08.99,16,16,0,0,1-1.739,4.189,1.352,1.352,0,0,0,.06,1.47l2.469,3.479a.272.272,0,0,1-.03.34l-2.979,2.979a.254.254,0,0,1-.19.08.246.246,0,0,1-.15-.05L33.65,38a1.351,1.351,0,0,0-1.47-.06,16,16,0,0,1-4.189,1.739,1.327,1.327,0,0,0-.99,1.08l-.71,4.2a.259.259,0,0,1-.26.22H21.824a.259.259,0,0,1-.26-.22l-.7-4.2a1.342,1.342,0,0,0-.99-1.08,16.617,16.617,0,0,1-4.1-1.68,1.384,1.384,0,0,0-.68-.18,1.317,1.317,0,0,0-.78.25l-3.5,2.489a.3.3,0,0,1-.15.05.268.268,0,0,1-.19-.08L7.5,37.55a.271.271,0,0,1-.03-.34l2.459-3.449a1.369,1.369,0,0,0,.06-1.48A15.853,15.853,0,0,1,8.228,28.1a1.369,1.369,0,0,0-1.08-.99l-4.229-.72a.259.259,0,0,1-.22-.26V21.925a.259.259,0,0,1,.22-.26l4.169-.7a1.352,1.352,0,0,0,1.09-1,15.988,15.988,0,0,1,1.71-4.2,1.335,1.335,0,0,0-.07-1.46l-2.489-3.5a.272.272,0,0,1,.03-.34l2.979-2.979a.254.254,0,0,1,.19-.08.246.246,0,0,1,.15.05l3.449,2.459a1.369,1.369,0,0,0,1.48.06,15.853,15.853,0,0,1,4.179-1.759,1.369,1.369,0,0,0,.99-1.08l.72-4.229a.259.259,0,0,1,.26-.22h4.209a.259.259,0,0,1,.26.22l.7,4.169a1.352,1.352,0,0,0,1,1.09,16.227,16.227,0,0,1,4.289,1.759,1.352,1.352,0,0,0,1.47-.06l3.449-2.479a.3.3,0,0,1,.15-.05.268.268,0,0,1,.19.08L40.448,10.4a.271.271,0,0,1,.03.34l-2.469,3.469a1.351,1.351,0,0,0-.06,1.47,16,16,0,0,1,1.739,4.189,1.327,1.327,0,0,0,1.08.99l4.2.71a.259.259,0,0,1,.22.26v4.209Z" transform="translate(0 -0.001)" fill="#b3212d" stroke="#b3212d" stroke-width="1"/>
      <path id="Path_244" data-name="Path 244" d="M146.427,136a10.327,10.327,0,1,0,10.327,10.327A10.334,10.334,0,0,0,146.427,136Zm0,17.955a7.628,7.628,0,1,1,7.628-7.628A7.633,7.633,0,0,1,146.427,153.956Z" transform="translate(-122.494 -122.405)" fill="#b3212d" stroke="#b3212d" stroke-width="1"/>
    </g>
  </g>
</svg>
