<svg xmlns="http://www.w3.org/2000/svg" width="48.149" height="52.299" viewBox="0 0 48.149 52.299">
  <g id="package" transform="translate(-18.8)">
    <path id="Path_233" data-name="Path 233" d="M66.927,12.33a1.371,1.371,0,0,0-.132-.585,1.279,1.279,0,0,0-.894-.706L43.415.132a1.334,1.334,0,0,0-1.159,0L19.551,11.138a1.329,1.329,0,0,0-.751,1.148V39.958a1.316,1.316,0,0,0,.751,1.192L42.256,52.156c.011,0,.011,0,.022.011a.392.392,0,0,1,.1.044c.011,0,.022.011.044.011l.1.033c.011,0,.022.011.033.011.033.011.077.011.11.022H42.7c.044,0,.1.011.143.011a.629.629,0,0,0,.143-.011h.033a.392.392,0,0,0,.11-.022c.011,0,.022-.011.033-.011l.1-.033c.011,0,.022-.011.044-.011a.392.392,0,0,0,.1-.044c.011,0,.011,0,.022-.011L66.2,41.117a1.335,1.335,0,0,0,.751-1.192V12.363C66.927,12.352,66.927,12.341,66.927,12.33ZM42.83,2.793l19.692,9.548L55.27,15.862,35.578,6.314Zm0,19.1L23.138,12.341l9.4-4.559L52.235,17.33ZM21.449,14.471,41.506,24.2V48.844L21.449,39.119ZM44.155,48.844V24.2l9.416-4.57v6.446a1.325,1.325,0,1,0,2.649,0V18.335l8.058-3.908V39.075Z" transform="translate(0 0)" fill="#b3212d"/>
  </g>
</svg>
