<svg xmlns="http://www.w3.org/2000/svg" width="35.948" height="52.24" viewBox="0 0 35.948 52.24">
  <g id="facebook-placeholder-for-locate-places-on-maps" transform="translate(1.5 1.5)">
    <path id="Facebook_Places" d="M99.074,11.9A14.9,14.9,0,0,0,98.3,9.99a16.385,16.385,0,0,0-31.4,4.846v2.041c0,.085.029.85.071,1.233.6,4.761,4.353,9.821,7.158,14.582,3.019,5.1,6.151,10.119,9.254,15.134,1.913-3.273,3.82-6.589,5.69-9.778.51-.936,1.1-1.871,1.611-2.764.34-.595.99-1.189,1.286-1.743,3.018-5.526,7.877-11.1,7.877-16.58V14.71A16.971,16.971,0,0,0,99.074,11.9ZM83.289,22.149a5.847,5.847,0,0,1-5.6-4,5.544,5.544,0,0,1-.157-1.489V15.347c0-3.74,3.176-5.441,5.939-5.441A6.021,6.021,0,0,1,89.5,16.028,6.176,6.176,0,0,1,83.289,22.149Z" transform="translate(-66.905 0)" fill="none" stroke="#b3212d" stroke-width="3"/>
  </g>
</svg>
