<svg xmlns="http://www.w3.org/2000/svg" width="49.49" height="53.255" viewBox="0 0 49.49 53.255">
  <g id="shopping-cart_2_" data-name="shopping-cart (2)" transform="translate(-17.2 0)">
    <path id="Path_242" data-name="Path 242" d="M31.305,35.065H60.649a6.054,6.054,0,0,0,6.042-6.042V16.546a.139.139,0,0,0-.011-.066c0-.022-.011-.055-.011-.077s-.011-.044-.011-.066a.7.7,0,0,1-.022-.077c-.011-.022-.011-.044-.022-.066s-.011-.044-.022-.066a.533.533,0,0,1-.033-.077A.239.239,0,0,0,66.527,16l-.033-.066c-.011-.022-.022-.033-.033-.055s-.033-.044-.044-.066a.192.192,0,0,0-.044-.055c-.011-.022-.033-.033-.044-.055s-.033-.033-.044-.055-.033-.033-.044-.044l-.055-.055c-.022-.011-.033-.033-.055-.044s-.044-.033-.066-.044-.033-.022-.055-.033a.229.229,0,0,1-.066-.044l-.066-.033-.066-.033-.066-.033c-.022-.011-.044-.011-.066-.022a.2.2,0,0,0-.077-.022.474.474,0,0,1-.055-.011.241.241,0,0,0-.088-.011c-.011,0-.022-.011-.044-.011L28.23,10.077V4.889a.673.673,0,0,0-.011-.153.083.083,0,0,0-.011-.044c0-.033-.011-.066-.011-.1s-.011-.055-.022-.088-.011-.033-.011-.055l-.033-.1c0-.011-.011-.033-.011-.044a.328.328,0,0,0-.044-.088c-.011-.011-.011-.033-.022-.044a.229.229,0,0,0-.044-.066c-.011-.022-.022-.033-.033-.055s-.022-.033-.033-.055-.033-.044-.044-.066L27.868,3.9,27.8,3.839l-.033-.033a.476.476,0,0,0-.077-.066c-.011-.011-.033-.022-.044-.033s-.044-.033-.066-.055A1.009,1.009,0,0,0,27.5,3.6c-.011-.011-.022-.011-.033-.022-.044-.022-.1-.044-.142-.066L19.255.117a1.479,1.479,0,1,0-1.149,2.725l7.158,3.021V38.239a6.049,6.049,0,0,0,5.265,5.987A5.963,5.963,0,1,0,41.6,47.291a5.852,5.852,0,0,0-.821-3.01H54.071a5.882,5.882,0,0,0-.821,3.01,5.965,5.965,0,1,0,5.965-5.965H31.305a3.09,3.09,0,0,1-3.087-3.087V34.233A6.111,6.111,0,0,0,31.305,35.065ZM38.66,47.28a3.01,3.01,0,1,1-3.01-3.01A3.015,3.015,0,0,1,38.66,47.28Zm23.576,0a3.01,3.01,0,1,1-3.01-3.01A3.015,3.015,0,0,1,62.236,47.28ZM60.649,32.11H31.305a3.09,3.09,0,0,1-3.087-3.087V13.054l35.517,4.892V29.012A3.092,3.092,0,0,1,60.649,32.11Z" transform="translate(0 0)" fill="#b3212d"/>
  </g>
</svg>
